<?xml version="1.0" encoding="UTF-8"?>
<svg xmlns="http://www.w3.org/2000/svg" width="64" height="64" viewBox="0 0 64 64" role="img" aria-label="Secondary school">
  <defs><linearGradient id="g" x1="8" y1="7" x2="55" y2="57" gradientUnits="userSpaceOnUse"><stop stop-color="#68A8FF"/><stop offset="1" stop-color="#5166E8"/></linearGradient><filter id="s" x="-20%" y="-20%" width="140%" height="150%"><feDropShadow dx="0" dy="4" stdDeviation="4" flood-color="#060914" flood-opacity=".58"/></filter></defs>
  <rect x="5" y="5" width="54" height="54" rx="17" fill="#0B102A" filter="url(#s)"/>
  <rect x="6" y="6" width="52" height="52" rx="16" fill="url(#g)" opacity=".28"/>
  <rect x="7" y="7" width="50" height="50" rx="15" fill="none" stroke="#68A8FF" stroke-opacity=".72" stroke-width="1.4"/>
  <circle cx="32" cy="32" r="17" fill="#111733" fill-opacity=".92" stroke="white" stroke-opacity=".12"/>
  <g transform="translate(18.5 18.5) scale(1.125) rotate(-1.2 12 12)" fill="none" stroke="#F7FAFF" stroke-width="1.8" stroke-linecap="round" stroke-linejoin="round"><path d="m3 9 9-5 9 5-9 5-9-5Z"/><path d="M7 12v5c3 2 7 2 10 0v-5M21 9v6"/></g>
  <circle cx="10" cy="37" r="1.8" fill="#68A8FF" opacity=".92"/>
</svg>
